<svg width="29" height="29" viewBox="0 0 29 29" fill="none" xmlns="http://www.w3.org/2000/svg">
<g id="person-fill">
<path id="Vector" d="M5.4375 25.375C5.4375 25.375 3.625 25.375 3.625 23.5625C3.625 21.75 5.4375 16.3125 14.5 16.3125C23.5625 16.3125 25.375 21.75 25.375 23.5625C25.375 25.375 23.5625 25.375 23.5625 25.375H5.4375ZM14.5 14.5C15.9421 14.5 17.3252 13.9271 18.3449 12.9074C19.3646 11.8877 19.9375 10.5046 19.9375 9.0625C19.9375 7.62039 19.3646 6.23734 18.3449 5.21761C17.3252 4.19788 15.9421 3.625 14.5 3.625C13.0579 3.625 11.6748 4.19788 10.6551 5.21761C9.63538 6.23734 9.0625 7.62039 9.0625 9.0625C9.0625 10.5046 9.63538 11.8877 10.6551 12.9074C11.6748 13.9271 13.0579 14.5 14.5 14.5Z" fill="#D8B386"/>
</g>
</svg>
