<svg width="24" height="25" viewBox="0 0 24 25" fill="none" xmlns="http://www.w3.org/2000/svg">
<g id="icon_home">
<path id="Vector" d="M9.34375 22.3438V17.3054C9.34375 16.9532 9.70313 16.5938 10.0625 16.5938H12.9375C13.2969 16.5938 13.6563 16.9532 13.6563 17.3126V22.3438C13.6563 22.5344 13.732 22.7173 13.8668 22.852C14.0016 22.9868 14.1844 23.0626 14.375 23.0626H20.125C20.3156 23.0626 20.4984 22.9868 20.6332 22.852C20.768 22.7173 20.8438 22.5344 20.8438 22.3438V12.2813C20.8439 12.1869 20.8255 12.0933 20.7895 12.006C20.7534 11.9187 20.7006 11.8393 20.6339 11.7724L18.6875 9.8275V5.09381C18.6875 4.90319 18.6118 4.72037 18.477 4.58558C18.3422 4.45079 18.1594 4.37506 17.9688 4.37506H16.5313C16.3406 4.37506 16.1578 4.45079 16.023 4.58558C15.8882 4.72037 15.8125 4.90319 15.8125 5.09381V6.9525L12.0089 3.14744C11.9421 3.0805 11.8628 3.0274 11.7755 2.99116C11.6882 2.95493 11.5945 2.93628 11.5 2.93628C11.4055 2.93628 11.3118 2.95493 11.2245 2.99116C11.1372 3.0274 11.0579 3.0805 10.9911 3.14744L2.36613 11.7724C2.29942 11.8393 2.24655 11.9187 2.21054 12.006C2.17453 12.0933 2.15608 12.1869 2.15625 12.2813V22.3438C2.15625 22.5344 2.23198 22.7173 2.36677 22.852C2.50156 22.9868 2.68438 23.0626 2.875 23.0626H8.625C8.81563 23.0626 8.99844 22.9868 9.13323 22.852C9.26803 22.7173 9.34375 22.5344 9.34375 22.3438Z" fill="#D8B386"/>
</g>
</svg>
