<svg width="24" height="24" viewBox="0 0 24 24" fill="none" xmlns="http://www.w3.org/2000/svg">
<g id="search-heart-fill" clip-path="url(#clip0_323_428)">
<path id="Vector" d="M9.75 19.5C11.8247 19.5033 13.8459 18.842 15.5175 17.613H15.516C15.561 17.673 15.609 17.73 15.663 17.7855L21.438 23.5605C21.7193 23.842 22.1008 24.0002 22.4987 24.0003C22.8966 24.0004 23.2783 23.8425 23.5597 23.5613C23.8412 23.28 23.9994 22.8984 23.9996 22.5005C23.9997 22.1026 23.8418 21.721 23.5605 21.4395L17.7855 15.6645C17.7319 15.6102 17.6742 15.5601 17.613 15.5145C18.8416 13.8439 19.5029 11.8237 19.5 9.75C19.4992 7.16438 18.4717 4.68489 16.6434 2.85659C14.8151 1.02828 12.3356 0.000795207 9.75 0C7.16414 0 4.68419 1.02723 2.85571 2.85571C1.02723 4.68419 0 7.16414 0 9.75C0 12.3359 1.02723 14.8158 2.85571 16.6443C4.68419 18.4728 7.16414 19.5 9.75 19.5ZM9.75 6.723C12.246 4.2135 18.4875 8.604 9.75 14.25C1.0125 8.604 7.254 4.215 9.75 6.723Z" fill="#D8B386"/>
</g>
<defs>
<clipPath id="clip0_323_428">
<rect width="24" height="24" fill="white"/>
</clipPath>
</defs>
</svg>
