<svg width="53" height="53" viewBox="0 0 53 53" fill="none" xmlns="http://www.w3.org/2000/svg">
<g id="icon_media">
<g id="media">
<path id="Vector" d="M53 26.5C53 33.5282 50.208 40.2686 45.2383 45.2383C40.2686 50.208 33.5282 53 26.5 53C19.4718 53 12.7314 50.208 7.76167 45.2383C2.79196 40.2686 0 33.5282 0 26.5C0 19.4718 2.79196 12.7314 7.76167 7.76167C12.7314 2.79196 19.4718 0 26.5 0C33.5282 0 40.2686 2.79196 45.2383 7.76167C50.208 12.7314 53 19.4718 53 26.5ZM28.1562 14.9062C28.1562 14.467 27.9818 14.0457 27.6711 13.7351C27.3605 13.4245 26.9393 13.25 26.5 13.25C26.0607 13.25 25.6395 13.4245 25.3289 13.7351C25.0182 14.0457 24.8438 14.467 24.8438 14.9062V24.8438H14.9062C14.467 24.8438 14.0457 25.0182 13.7351 25.3289C13.4245 25.6395 13.25 26.0607 13.25 26.5C13.25 26.9393 13.4245 27.3605 13.7351 27.6711C14.0457 27.9818 14.467 28.1562 14.9062 28.1562H24.8438V38.0938C24.8438 38.533 25.0182 38.9543 25.3289 39.2649C25.6395 39.5755 26.0607 39.75 26.5 39.75C26.9393 39.75 27.3605 39.5755 27.6711 39.2649C27.9818 38.9543 28.1562 38.533 28.1562 38.0938V28.1562H38.0938C38.533 28.1562 38.9543 27.9818 39.2649 27.6711C39.5755 27.3605 39.75 26.9393 39.75 26.5C39.75 26.0607 39.5755 25.6395 39.2649 25.3289C38.9543 25.0182 38.533 24.8438 38.0938 24.8438H28.1562V14.9062Z" fill="#D8B386"/>
</g>
</g>
</svg>
