<svg width="19" height="19" viewBox="0 0 19 19" fill="none" xmlns="http://www.w3.org/2000/svg">
<path fill-rule="evenodd" clip-rule="evenodd" d="M18.6469 0.353057C18.7197 0.425628 18.7774 0.51184 18.8168 0.606754C18.8562 0.701668 18.8764 0.80342 18.8764 0.906182C18.8764 1.00894 18.8562 1.1107 18.8168 1.20561C18.7774 1.30052 18.7197 1.38674 18.6469 1.45931L1.45943 18.6468C1.31273 18.7935 1.11377 18.8759 0.906304 18.8759C0.698842 18.8759 0.499877 18.7935 0.353179 18.6468C0.206481 18.5001 0.124067 18.3011 0.124067 18.0937C0.124067 17.8862 0.206481 17.6873 0.353179 17.5406L17.5407 0.353057C17.6132 0.280302 17.6995 0.222579 17.7944 0.183193C17.8893 0.143808 17.991 0.123535 18.0938 0.123535C18.1966 0.123535 18.2983 0.143808 18.3932 0.183193C18.4881 0.222579 18.5744 0.280302 18.6469 0.353057Z" fill="white"/>
<path fill-rule="evenodd" clip-rule="evenodd" d="M0.353179 0.353057C0.280424 0.425628 0.222701 0.51184 0.183316 0.606754C0.14393 0.701668 0.123657 0.80342 0.123657 0.906182C0.123657 1.00894 0.14393 1.1107 0.183316 1.20561C0.222701 1.30052 0.280424 1.38674 0.353179 1.45931L17.5407 18.6468C17.6874 18.7935 17.8863 18.8759 18.0938 18.8759C18.3013 18.8759 18.5002 18.7935 18.6469 18.6468C18.7936 18.5001 18.876 18.3011 18.876 18.0937C18.876 17.8862 18.7936 17.6873 18.6469 17.5406L1.45943 0.353057C1.38686 0.280302 1.30065 0.222579 1.20573 0.183193C1.11082 0.143808 1.00907 0.123535 0.906304 0.123535C0.803542 0.123535 0.70179 0.143808 0.606876 0.183193C0.511962 0.222579 0.42575 0.280302 0.353179 0.353057Z" fill="white"/>
</svg>
